<svg width="32" height="30" viewBox="0 0 32 30" fill="none" xmlns="http://www.w3.org/2000/svg">
<path fill-rule="evenodd" clip-rule="evenodd" d="M15.4832 25.0952C15.801 24.9034 16.1989 24.9034 16.5167 25.0952L24.271 29.7754C25.0283 30.2325 25.9625 29.5535 25.7616 28.692L23.7038 19.8711C23.6194 19.5096 23.7423 19.1312 24.0229 18.8881L30.8753 12.9519C31.5438 12.3727 31.1864 11.2744 30.305 11.1996L21.2842 10.4343C20.9146 10.403 20.5927 10.1696 20.448 9.82811L16.9207 1.5057C16.5761 0.692672 15.4238 0.69267 15.0793 1.5057L11.552 9.82811C11.4072 10.1696 11.0854 10.403 10.7158 10.4343L1.69494 11.1996C0.813515 11.2744 0.456109 12.3727 1.12471 12.9519L7.97711 18.8881C8.25767 19.1312 8.38052 19.5096 8.29619 19.8711L6.23839 28.692C6.03743 29.5535 6.97166 30.2325 7.72898 29.7754L15.4832 25.0952Z" fill="#FFB800"/>
</svg>
