<?xml version="1.0" encoding="utf-8"?>
<!-- Generator: Adobe Illustrator 24.1.0, SVG Export Plug-In . SVG Version: 6.00 Build 0)  -->
<svg version="1.1" id="Isolation_Mode" xmlns="http://www.w3.org/2000/svg" xmlns:xlink="http://www.w3.org/1999/xlink" x="0px"
	 y="0px" viewBox="0 0 347 86" style="enable-background:new 0 0 347 86;" xml:space="preserve">
<style type="text/css">
	.st0{fill:#225538;}
	.st1{fill:#5ABB57;}
	.st2{fill:#FFFFFF;}
</style>
<g>
	<g>
		<g>
			<g>
				<polygon class="st0" points="97.8,72.5 98.1,57.2 96.4,63.9 80.6,63.9 80.2,62.7 80.4,71.8 57.7,71.8 57.7,18.1 87.2,18.1 
					89.9,31 94.2,14.6 119.2,14.6 118.9,72.5 				"/>
				<path class="st0" d="M143.1,73.9c-21.2,0-23.2-18.1-23.3-19.9l-3.9-36.8l21.8-2.3l4.4,37.5l7.2-1.4l-3.6-34.3l20.7-2.9l4.1,37.5
					c0.2,1,0.9,7.3-3.5,13.1c-3.9,5.2-10.5,8.3-19.7,9.3C145.9,73.8,144.4,73.9,143.1,73.9z"/>
				<polygon class="st0" points="168.5,72.5 168.5,14.6 189.3,14.6 194.3,26.7 194.3,15.3 215.7,15.3 215.7,71.8 192.8,71.8 
					187.8,59.6 187.8,72.5 				"/>
				<polygon class="st0" points="214.3,70.3 214.4,52.9 231,32.2 214.4,33 214.3,15.3 255.1,15.3 255.1,30.3 240.8,51 255.8,51 
					255.8,70.3 				"/>
				<polygon class="st0" points="253.6,70.3 256.1,13.1 300.8,14.6 299.4,31 294.4,31 292.9,48.9 275.8,48.9 275.8,49.6 298,49.6 
					295.8,71.8 				"/>
				<polygon class="st0" points="298,14.6 343,13.1 343,29.6 337.3,29.6 337.3,47.4 320.1,48.9 320.1,49.6 341.6,48.9 341.6,70.3 
					299.4,71.8 				"/>
			</g>
			<polygon class="st1" points="62,20.3 86.3,20.3 90.6,41.7 97.8,16.7 117.8,16.7 117.8,69.6 102,69.6 102.4,34.1 95.6,60.2 
				84,60.2 78.2,34.6 78.9,68.1 62,68.1 			"/>
			<path class="st1" d="M120.6,18.8l15.7-1.4l4.3,37.2l13.2-1.3l-4-35.1l15-1.4l4.2,34.3c0,0,3,16.6-20.6,19.1S124,53,124,53
				L120.6,18.8z"/>
			<polygon class="st1" points="188.6,16.7 172.8,16.7 172.8,68.9 186.4,68.9 186.5,43.4 195.9,68.1 214.3,68.2 214.3,17.4 
				198.6,17.4 198.6,40.3 			"/>
			<polygon class="st1" points="218.6,17.4 252.9,17.4 252.9,28.9 237.2,53.2 254.3,53.2 254.3,66.8 218.6,66.8 218.6,53.2 
				238.6,28.1 218.6,29.6 			"/>
			<polygon class="st1" points="260.1,15.3 257.9,66.8 294.4,68.2 295.8,52.5 274.4,51.7 275.1,45.3 291.5,45.3 292.2,32.4 
				277.2,32.4 277.9,26.7 298,27.4 299.4,16.7 			"/>
			<polygon class="st1" points="302.2,16.7 303.7,68.2 340.1,66.8 340.1,51 318.7,51.7 318.7,45.3 335.8,44.6 335.8,31.7 
				320.8,32.4 320.8,27.4 341.6,26 341.6,15.3 			"/>
		</g>
	</g>
</g>
<g id="P_Geenie_2_">
	<rect x="9.5" y="16.5" class="st1" width="39.9" height="39.9"/>
	<path class="st0" d="M49.4,13.1H9.5c-1.9,0-3.4,1.5-3.4,3.4v39.9c0,1.9,1.5,3.4,3.4,3.4H19L29.5,82l10.4-22.1h9.6
		c1.9,0,3.4-1.5,3.4-3.4V16.5C52.9,14.6,51.3,13.1,49.4,13.1z M49.4,56.5H9.5V16.5h39.9V56.5z"/>
	<polygon class="st0" points="34,50.6 34.2,43.1 33.4,46.4 25.7,46.4 25.5,45.8 25.5,50.2 14.5,50.2 14.5,24.2 28.9,24.2 30.2,30.4 
		32.3,22.4 44.4,22.4 44.3,50.6 	"/>
	<polygon class="st2" points="16.6,25.2 28.4,25.2 30.5,35.6 34,23.5 43.7,23.5 43.7,49.2 36.1,49.2 36.3,31.9 33,44.6 27.3,44.6 
		24.5,32.2 24.8,48.5 16.6,48.5 	"/>
</g>
</svg>
